<?xml version="1.0" encoding="utf-8"?>
<svg version="1.0" id="Layer_1" x="0px" y="0px" width="100px" height="100px" viewBox="0 0 100 100" enable-background="new 0 0 100 100" xmlns="http://www.w3.org/2000/svg" xmlns:bx="https://boxy-svg.com">
  <defs>
    <bx:grid x="0" y="0" width="7.16" height="6.665"/>
  </defs>
  <g>
    <title>Truck</title>
    <polygon style="fill: rgb(255, 255, 255);" points="69.507 35.09 86.996 35.314 95.516 47.422 95.964 55.381 69.058 55.381">
      <title>Window</title>
    </polygon>
    <ellipse style="fill: rgb(255, 255, 255);" cx="27.915" cy="74.888" rx="9.305" ry="9.865">
      <title>Tire</title>
    </ellipse>
    <ellipse style="fill: rgb(255, 255, 255);" cx="77.354" cy="74.888" rx="9.305" ry="9.865">
      <title>Tire</title>
    </ellipse>
    <path d="M 8.183 13.33 C 5.185 13.33 2.754 15.86 2.754 18.965 L 2.754 70.793 C 2.754 73.896 5.483 76.737 8.481 76.737 L 16.296 76.737 C 17.204 82.357 21.902 86.645 27.57 86.645 C 33.238 86.645 37.936 82.357 38.844 76.737 L 56.502 76.737 C 59.493 76.737 61.931 74.207 61.931 71.102 L 61.931 19.088 C 61.931 15.916 59.522 13.33 56.562 13.33 L 8.183 13.33 Z M 65.749 27.2 L 65.749 76.737 C 66.665 82.35 71.535 86.645 77.203 86.645 C 82.871 86.645 87.569 82.35 88.476 76.737 L 92.474 76.737 C 95.471 76.737 98.201 73.904 98.201 70.793 L 98.201 51.721 C 98.201 47.735 95.435 43.665 95.099 43.175 L 87.165 32.154 C 85.346 29.879 82.491 27.2 79.112 27.2 L 65.749 27.2 Z M 75.293 37.108 L 85.972 37.108 L 92.056 45.529 C 92.705 46.481 94.383 49.399 94.383 51.721 L 94.383 52.96 L 75.293 52.96 C 73.385 52.96 71.475 50.979 71.475 48.996 L 71.475 41.071 C 71.475 38.881 73.385 37.108 75.293 37.108 Z M 27.57 66.83 C 31.784 66.83 35.206 70.383 35.206 74.756 C 35.206 79.129 31.784 82.682 27.57 82.682 C 23.358 82.682 19.935 79.129 19.935 74.756 C 19.935 70.383 23.358 66.83 27.57 66.83 Z M 77.203 66.83 C 81.415 66.83 84.838 70.383 84.838 74.756 C 84.838 79.129 81.415 82.682 77.203 82.682 C 72.989 82.682 69.567 79.129 69.567 74.756 C 69.567 70.383 72.989 66.83 77.203 66.83 Z" style="stroke-width: 2px; stroke: rgb(17, 17, 17); fill: rgb(244, 244, 244);">
      <title>Truck</title>
    </path>
  </g>
  <g transform="matrix(0.733407, 0, 0, 0.734367, -0.438489, 12.405988)" style="">
    <title>Arrow</title>
    <path d="M 27.819 38.199 L 41.964 52.34 C 43.266 53.643 45.378 53.643 46.677 52.34 L 60.822 38.199 L 56.105 33.486 L 47.654 41.937 L 47.654 6.65 L 40.988 6.65 L 40.988 41.937 L 32.534 33.486 L 27.819 38.199 Z" style="stroke-linejoin: round; paint-order: fill; fill: rgb(17, 17, 17); stroke-width: 1.36261px;"/>
    <path d="M 67.653 46.65 L 67.653 59.984 L 20.987 59.984 L 20.987 46.65 L 14.32 46.65 L 14.32 59.984 C 14.32 63.648 17.321 66.65 20.987 66.65 L 67.653 66.65 C 71.319 66.65 74.32 63.648 74.32 59.984 L 74.32 46.65 L 67.653 46.65 Z" style="stroke-linejoin: round; paint-order: fill; fill: rgb(17, 17, 17); stroke-width: 1.36261px;"/>
  </g>
</svg>